# xmcd
#
# Track frame offsets: 
#        150
#        12385
#        21561
#        34968
#        47426
#        59998
#        71344
#        81699
#        93644
#
# Disc length: 1396 seconds
#
# Revision: 0
# Processed by: cddbd v1.5.2PL0 Copyright (c) Steve Scherf et al.
# Submitted via: ExactAudioCopy v1.3
#
DISCID=83057209
DTITLE=Hank Williams Jr. - Eleven Roses
DYEAR=1972
DGENRE=Country
TTITLE0=Eleven Roses
TTITLE1=The Loser
TTITLE2=Hamburger Steak Holiday Inn
TTITLE3=Divorce Or Destroy
TTITLE4=I'll Follow You Up To Our Cloud
TTITLE5=Just Like Me
TTITLE6=She
TTITLE7=All I Can Give You Is My Heart
TTITLE8=I Hope It Rains Today
EXTD=
EXTT0=
EXTT1=
EXTT2=
EXTT3=
EXTT4=
EXTT5=
EXTT6=
EXTT7=
EXTT8=
PLAYORDER=
